<?xml version="1.0" encoding="utf-8" standalone="no"?>
<!DOCTYPE svg PUBLIC "-//W3C//DTD SVG 1.1//EN"
  "http://www.w3.org/Graphics/SVG/1.1/DTD/svg11.dtd">
<svg xmlns:xlink="http://www.w3.org/1999/xlink" width="921.6pt" height="576pt" viewBox="0 0 921.6 576" xmlns="http://www.w3.org/2000/svg" version="1.1">
 <metadata>
  <rdf:RDF xmlns:dc="http://purl.org/dc/elements/1.1/" xmlns:cc="http://creativecommons.org/ns#" xmlns:rdf="http://www.w3.org/1999/02/22-rdf-syntax-ns#">
   <cc:Work>
    <dc:type rdf:resource="http://purl.org/dc/dcmitype/StillImage"/>
    <dc:date>2026-10-09T12:21:40.520923</dc:date>
    <dc:format>image/svg+xml</dc:format>
    <dc:creator>
     <cc:Agent>
      <dc:title>Matplotlib v3.10.7, https://matplotlib.org/</dc:title>
     </cc:Agent>
    </dc:creator>
   </cc:Work>
  </rdf:RDF>
 </metadata>
 <defs>
  <style type="text/css">*{stroke-linejoin: round; stroke-linecap: butt}</style>
 </defs>
 <g id="figure_1">
  <g id="patch_1">
   <path d="M 0 576 
L 921.6 576 
L 921.6 0 
L 0 0 
z
" style="fill: #ffffff"/>
  </g>
  <g id="patch_2">
   <path d="M 163.584 449.28 
L 555.264 449.28 
L 555.264 57.6 
L 163.584 57.6 
z
" style="fill: #ffffff"/>
  </g>
  <g id="pane3d_1">
   <g id="patch_3">
    <path d="M 204.815113 367.571359 
L 333.352762 285.577665 
L 332.012367 83.953235 
L 197.383186 152.105617 
" style="fill: none; opacity: 0"/>
   </g>
  </g>
  <g id="pane3d_2">
   <g id="patch_4">
    <path d="M 333.352762 285.577665 
L 520.06238 337.307693 
L 527.067513 126.893874 
L 332.012367 83.953235 
" style="fill: none; opacity: 0"/>
   </g>
  </g>
  <g id="pane3d_3">
   <g id="patch_5">
    <path d="M 204.815113 367.571359 
L 400.657847 428.588533 
L 520.06238 337.307693 
L 333.352762 285.577665 
" style="fill: none; opacity: 0"/>
   </g>
  </g>
  <g id="grid3d_1">
   <g id="Line3DCollection_1">
    <path d="M 214.999341 370.744378 
L 343.102866 288.279042 
L 342.1765 86.19083 
" style="fill: none; stroke: #e6e6e6; stroke-width: 0.5"/>
    <path d="M 252.707447 382.492795 
L 379.164466 298.27032 
L 379.790244 94.47135 
" style="fill: none; stroke: #e6e6e6; stroke-width: 0.5"/>
    <path d="M 291.256593 394.503248 
L 415.966838 308.466836 
L 418.210468 102.929415 
" style="fill: none; stroke: #e6e6e6; stroke-width: 0.5"/>
    <path d="M 330.675234 406.784603 
L 453.533043 318.874982 
L 457.463392 111.570795 
" style="fill: none; stroke: #e6e6e6; stroke-width: 0.5"/>
    <path d="M 370.993125 419.346129 
L 491.887111 329.501414 
L 497.576383 120.401515 
" style="fill: none; stroke: #e6e6e6; stroke-width: 0.5"/>
   </g>
  </g>
  <g id="grid3d_2">
   <g id="Line3DCollection_2">
    <path d="M 205.000404 148.249607 
L 212.06314 362.947869 
L 407.419045 423.419819 
" style="fill: none; stroke: #e6e6e6; stroke-width: 0.5"/>
    <path d="M 233.54637 133.798983 
L 239.251656 345.604415 
L 432.751286 404.054153 
" style="fill: none; stroke: #e6e6e6; stroke-width: 0.5"/>
    <path d="M 261.129869 119.835583 
L 265.562701 328.820696 
L 457.220804 385.348012 
" style="fill: none; stroke: #e6e6e6; stroke-width: 0.5"/>
    <path d="M 287.79877 106.335173 
L 291.03808 312.570045 
L 480.870932 367.268267 
" style="fill: none; stroke: #e6e6e6; stroke-width: 0.5"/>
    <path d="M 313.59782 93.275102 
L 315.716983 296.827464 
L 503.742149 349.783973 
" style="fill: none; stroke: #e6e6e6; stroke-width: 0.5"/>
   </g>
  </g>
  <g id="grid3d_3">
   <g id="Line3DCollection_3">
    <path d="M 520.25079 331.648392 
L 333.316632 280.142834 
L 204.61548 361.78364 
" style="fill: none; stroke: #e6e6e6; stroke-width: 0.5"/>
    <path d="M 521.607601 290.893754 
L 333.056572 241.024194 
L 203.177439 320.092057 
" style="fill: none; stroke: #e6e6e6; stroke-width: 0.5"/>
    <path d="M 522.988292 249.421807 
L 332.792168 201.252175 
L 201.713329 277.644733 
" style="fill: none; stroke: #e6e6e6; stroke-width: 0.5"/>
    <path d="M 524.3935 207.213444 
L 332.523311 160.81027 
L 200.222438 234.420932 
" style="fill: none; stroke: #e6e6e6; stroke-width: 0.5"/>
    <path d="M 525.823884 164.248875 
L 332.249887 119.681411 
L 198.704021 190.399149 
" style="fill: none; stroke: #e6e6e6; stroke-width: 0.5"/>
   </g>
  </g>
  <g id="axis3d_1">
   <g id="line2d_1">
    <path d="M 204.815113 367.571359 
L 400.657847 428.588533 
" style="fill: none; stroke: #000000; stroke-linecap: square"/>
   </g>
   <g id="xtick_1">
    <g id="line2d_2">
     <path d="M 216.109419 370.029777 
L 212.774708 372.176463 
" style="fill: none; stroke: #000000; stroke-width: 0.8; stroke-linecap: square"/>
    </g>
    <g id="text_1">
     <text style="font-size: 12px; font-family: 'Times New Roman', 'SimSun'; text-anchor: middle" x="207.531248" y="395.786423" transform="rotate(-0 207.531248 395.786423)">-20</text>
    </g>
   </g>
   <g id="xtick_2">
    <g id="line2d_3">
     <path d="M 253.804184 381.76235 
L 250.509499 383.956665 
" style="fill: none; stroke: #000000; stroke-width: 0.8; stroke-linecap: square"/>
    </g>
    <g id="text_2">
     <text style="font-size: 12px; font-family: 'Times New Roman', 'SimSun'; text-anchor: middle" x="245.241594" y="407.745961" transform="rotate(-0 245.241594 407.745961)">-15</text>
    </g>
   </g>
   <g id="xtick_3">
    <g id="line2d_4">
     <path d="M 292.339116 393.756425 
L 289.087083 395.999972 
" style="fill: none; stroke: #000000; stroke-width: 0.8; stroke-linecap: square"/>
    </g>
    <g id="text_3">
     <text style="font-size: 12px; font-family: 'Times New Roman', 'SimSun'; text-anchor: middle" x="283.794944" y="419.972851" transform="rotate(-0 283.794944 419.972851)">-10</text>
    </g>
   </g>
   <g id="xtick_4">
    <g id="line2d_5">
     <path d="M 331.74262 406.020846 
L 328.536012 408.315301 
" style="fill: none; stroke: #000000; stroke-width: 0.8; stroke-linecap: square"/>
    </g>
    <g id="text_4">
     <text style="font-size: 12px; font-family: 'Times New Roman', 'SimSun'; text-anchor: middle" x="323.219883" y="432.476158" transform="rotate(-0 323.219883 432.476158)">-5</text>
    </g>
   </g>
   <g id="xtick_5">
    <g id="line2d_6">
     <path d="M 372.044396 418.564856 
L 368.886147 420.911971 
" style="fill: none; stroke: #000000; stroke-width: 0.8; stroke-linecap: square"/>
    </g>
    <g id="text_5">
     <text style="font-size: 12px; font-family: 'Times New Roman', 'SimSun'; text-anchor: middle" x="363.546306" y="445.265365" transform="rotate(-0 363.546306 445.265365)">0</text>
    </g>
   </g>
   <g id="text_6">
    <text style="font-size: 16px; font-family: 'Times New Roman', 'SimSun'; text-anchor: middle" x="277.326634" y="450.52987" transform="rotate(-342.694945 277.326634 450.52987)">目标系 X / m</text>
   </g>
  </g>
  <g id="axis3d_2">
   <g id="line2d_7">
    <path d="M 520.06238 337.307693 
L 400.657847 428.588533 
" style="fill: none; stroke: #000000; stroke-linecap: square"/>
   </g>
   <g id="xtick_6">
    <g id="line2d_8">
     <path d="M 405.767578 422.908611 
L 410.726517 424.443638 
" style="fill: none; stroke: #000000; stroke-width: 0.8; stroke-linecap: square"/>
    </g>
    <g id="text_7">
     <text style="font-size: 12px; font-family: 'Times New Roman', 'SimSun'; text-anchor: middle" x="418.955797" y="447.43551" transform="rotate(-0 418.955797 447.43551)">-15</text>
    </g>
   </g>
   <g id="xtick_7">
    <g id="line2d_9">
     <path d="M 431.117032 403.5605 
L 436.024208 405.042793 
" style="fill: none; stroke: #000000; stroke-width: 0.8; stroke-linecap: square"/>
    </g>
    <g id="text_8">
     <text style="font-size: 12px; font-family: 'Times New Roman', 'SimSun'; text-anchor: middle" x="444.102726" y="427.786801" transform="rotate(-0 444.102726 427.786801)">-10</text>
    </g>
   </g>
   <g id="xtick_8">
    <g id="line2d_10">
     <path d="M 455.603556 384.871023 
L 460.459591 386.303254 
" style="fill: none; stroke: #000000; stroke-width: 0.8; stroke-linecap: square"/>
    </g>
    <g id="text_9">
     <text style="font-size: 12px; font-family: 'Times New Roman', 'SimSun'; text-anchor: middle" x="468.392755" y="408.807635" transform="rotate(-0 468.392755 408.807635)">-5</text>
    </g>
   </g>
   <g id="xtick_9">
    <g id="line2d_11">
     <path d="M 479.270478 366.807114 
L 484.076015 368.191776 
" style="fill: none; stroke: #000000; stroke-width: 0.8; stroke-linecap: square"/>
    </g>
    <g id="text_10">
     <text style="font-size: 12px; font-family: 'Times New Roman', 'SimSun'; text-anchor: middle" x="491.86895" y="390.464365" transform="rotate(-0 491.86895 390.464365)">0</text>
    </g>
   </g>
   <g id="xtick_10">
    <g id="line2d_12">
     <path d="M 502.158269 349.33788 
L 506.913973 350.677304 
" style="fill: none; stroke: #000000; stroke-width: 0.8; stroke-linecap: square"/>
    </g>
    <g id="text_11">
     <text style="font-size: 12px; font-family: 'Times New Roman', 'SimSun'; text-anchor: middle" x="514.571538" y="372.725556" transform="rotate(-0 514.571538 372.725556)">5</text>
    </g>
   </g>
   <g id="text_12">
    <text style="font-size: 16px; font-family: 'Times New Roman', 'SimSun'; text-anchor: middle" x="497.262585" y="427.427592" transform="rotate(-37.396723 497.262585 427.427592)">目标系 Y / m</text>
   </g>
  </g>
  <g id="axis3d_3">
   <g id="line2d_13">
    <path d="M 520.06238 337.307693 
L 527.067513 126.893874 
" style="fill: none; stroke: #000000; stroke-linecap: square"/>
   </g>
   <g id="xtick_11">
    <g id="line2d_14">
     <path d="M 518.676952 331.214756 
L 523.402462 332.516765 
" style="fill: none; stroke: #000000; stroke-width: 0.8; stroke-linecap: square"/>
    </g>
    <g id="text_13">
     <text style="font-size: 12px; font-family: 'Times New Roman', 'SimSun'; text-anchor: middle" x="537.508565" y="338.333208" transform="rotate(-0 537.508565 338.333208)">-20</text>
    </g>
   </g>
   <g id="xtick_12">
    <g id="line2d_15">
     <path d="M 520.01946 290.47371 
L 524.787948 291.734919 
" style="fill: none; stroke: #000000; stroke-width: 0.8; stroke-linecap: square"/>
    </g>
    <g id="text_14">
     <text style="font-size: 12px; font-family: 'Times New Roman', 'SimSun'; text-anchor: middle" x="539.013483" y="297.63023" transform="rotate(-0 539.013483 297.63023)">-15</text>
    </g>
   </g>
   <g id="xtick_13">
    <g id="line2d_16">
     <path d="M 521.385588 249.015901 
L 526.197841 250.234666 
" style="fill: none; stroke: #000000; stroke-width: 0.8; stroke-linecap: square"/>
    </g>
    <g id="text_15">
     <text style="font-size: 12px; font-family: 'Times New Roman', 'SimSun'; text-anchor: middle" x="540.544846" y="256.212022" transform="rotate(-0 540.544846 256.212022)">-10</text>
    </g>
   </g>
   <g id="xtick_14">
    <g id="line2d_17">
     <path d="M 522.775963 206.822248 
L 527.63279 207.996855 
" style="fill: none; stroke: #000000; stroke-width: 0.8; stroke-linecap: square"/>
    </g>
    <g id="text_16">
     <text style="font-size: 12px; font-family: 'Times New Roman', 'SimSun'; text-anchor: middle" x="542.103356" y="214.059566" transform="rotate(-0 542.103356 214.059566)">-5</text>
    </g>
   </g>
   <g id="xtick_15">
    <g id="line2d_18">
     <path d="M 524.191237 163.872983 
L 529.093471 165.001648 
" style="fill: none; stroke: #000000; stroke-width: 0.8; stroke-linecap: square"/>
    </g>
    <g id="text_17">
     <text style="font-size: 12px; font-family: 'Times New Roman', 'SimSun'; text-anchor: middle" x="543.689742" y="171.153161" transform="rotate(-0 543.689742 171.153161)">0</text>
    </g>
   </g>
   <g id="text_18">
    <text style="font-size: 16px; font-family: 'Times New Roman', 'SimSun'; text-anchor: middle" x="573.259061" y="230.590653" transform="rotate(-88.093203 573.259061 230.590653)">目标系 Z / m</text>
   </g>
  </g>
  <g id="axes_1">
   <g id="line2d_19">
    <path d="M 417.735122 281.823135 
L 418.109728 285.068107 
L 418.213139 287.967729 
L 418.090148 290.168103 
L 417.775521 292.097211 
L 417.27299 293.747604 
L 416.713551 294.904855 
L 416.030891 295.859607 
L 415.108963 296.736225 
L 413.816653 297.623905 
L 411.148917 299.16789 
L 408.818509 300.262823 
L 406.495022 301.105335 
L 404.358911 301.659832 
L 402.092422 302.015298 
L 400.028067 302.125349 
L 398.012021 302.02513 
L 395.901991 301.686862 
L 394.005512 301.163972 
L 392.17536 300.443504 
L 390.28306 299.451237 
L 388.476602 298.239906 
L 386.759385 296.814877 
L 385.135572 295.183146 
L 383.502483 293.213454 
L 381.982812 291.021701 
L 380.488327 288.447167 
L 379.127511 285.638476 
L 377.899645 282.603559 
L 376.74177 279.142144 
L 375.676687 275.220782 
L 374.720795 270.803257 
L 373.834777 265.589322 
L 372.849071 258.356072 
L 371.279611 244.843763 
L 370.532621 236.532073 
L 370.13883 229.712174 
L 370.015353 223.853957 
L 370.120254 218.369651 
L 370.44395 213.277828 
L 370.966859 208.588123 
L 371.659308 204.299743 
L 372.553798 200.133255 
L 373.653379 196.10552 
L 374.866252 192.488679 
L 376.259371 189.027974 
L 377.830872 185.745097 
L 379.448188 182.880112 
L 381.213711 180.221219 
L 382.969683 177.981273 
L 384.679061 176.137533 
L 386.47506 174.518407 
L 388.346671 173.139366 
L 390.2803 172.002987 
L 392.260856 171.098892 
L 394.457223 170.356192 
L 396.67225 169.840633 
L 399.072183 169.504986 
L 401.63704 169.367801 
L 405.094416 169.42259 
L 408.820093 169.702816 
L 412.025181 170.166466 
L 414.826868 170.789421 
L 417.903765 171.711682 
L 422.056491 173.21919 
L 429.342618 176.072452 
L 429.342618 176.072452 
" clip-path="url(#pcd24f5dd6f)" style="fill: none; stroke-dasharray: 7.4,3.2; stroke-dashoffset: 0; stroke: #777777; stroke-width: 2"/>
   </g>
   <g id="line2d_20">
    <path d="M 417.735122 281.823135 
L 418.14902 285.248435 
L 418.268058 288.07908 
L 418.165392 291.208307 
L 417.880795 293.748299 
L 417.328904 296.541617 
L 416.50683 299.471405 
L 415.624213 301.834673 
L 414.468214 304.319674 
L 413.05585 306.860338 
L 411.322262 309.443234 
L 409.149227 312.255496 
L 406.479456 315.232945 
L 404.103216 317.575595 
L 401.065771 320.271462 
L 397.660039 322.924512 
L 394.696595 324.949792 
L 391.558528 326.859516 
L 388.183482 328.640114 
L 385.085863 330.031435 
L 381.821958 331.268462 
L 378.643183 332.246547 
L 375.340395 333.041864 
L 371.862431 333.65011 
L 368.28871 334.034336 
L 364.582068 334.197895 
L 361.195328 334.130842 
L 357.34148 333.826803 
L 353.847355 333.326705 
L 350.306491 332.617827 
L 346.760694 331.689199 
L 342.805617 330.403587 
L 339.257617 329.016302 
L 335.331786 327.223733 
L 331.82628 325.38895 
L 327.974331 323.109505 
L 324.174746 320.585554 
L 320.443832 317.822916 
L 316.789087 314.830754 
L 313.224608 311.618052 
L 309.757329 308.195603 
L 306.400199 304.574527 
L 303.15977 300.76656 
L 301.359496 298.397167 
L 300.071746 296.371072 
L 298.980548 294.303435 
L 298.086537 292.199409 
L 297.387536 290.061109 
L 296.87826 287.88737 
L 296.497066 285.24917 
L 296.264498 282.24713 
L 296.244675 278.943775 
L 296.477256 275.783738 
L 296.879284 273.148015 
L 297.537279 270.277515 
L 299.895338 261.367655 
L 305.438913 241.552422 
L 308.068686 232.954776 
L 310.44122 225.921261 
L 312.750177 219.739433 
L 315.096943 214.05744 
L 317.610487 208.545528 
L 320.290937 203.215911 
L 322.963766 198.375075 
L 325.779267 193.714564 
L 328.73314 189.242249 
L 331.819962 184.966841 
L 335.034747 180.899062 
L 338.370388 177.05112 
L 341.601003 173.658552 
L 344.923639 170.494383 
L 348.100453 167.772829 
L 351.107029 165.476882 
L 353.922838 163.588269 
L 356.767648 161.954856 
L 359.390503 160.704772 
L 362.018085 159.700102 
L 364.641241 158.936125 
L 367.251431 158.39979 
L 370.074917 158.053137 
L 372.865653 157.928703 
L 375.84359 158.010767 
L 379.210423 158.338437 
L 382.711833 158.907759 
L 386.529397 159.753505 
L 390.81124 160.934514 
L 395.665466 162.514008 
L 401.326118 164.604137 
L 416.754295 170.718063 
L 426.738027 175.142002 
L 429.599509 176.250151 
L 429.599509 176.250151 
" clip-path="url(#pcd24f5dd6f)" style="fill: none; stroke: #004b87; stroke-width: 2; stroke-linecap: square"/>
   </g>
   <g id="line2d_21">
    <path d="M 417.735122 281.823135 
L 418.215777 285.694847 
L 418.423282 289.324128 
L 418.42562 293.099835 
L 418.188425 296.203411 
L 417.696201 299.731623 
L 416.668516 305.214127 
L 415.807288 310.163757 
L 415.263631 313.097615 
L 414.42764 316.484096 
L 413.424075 319.417506 
L 412.111911 322.589463 
L 410.374211 326.185048 
L 408.471535 329.64067 
L 406.680502 332.476736 
L 404.890931 334.932031 
L 402.969411 337.178482 
L 400.942685 339.178802 
L 399.027631 340.76805 
L 397.116629 342.085526 
L 395.20259 343.152901 
L 393.333649 343.938669 
L 391.440705 344.502006 
L 389.273542 344.897782 
L 386.93654 345.108186 
L 384.162085 345.122197 
L 381.105931 344.902852 
L 377.764115 344.433758 
L 374.153204 343.71071 
L 369.078679 342.444591 
L 360.971683 340.068252 
L 352.841907 337.466235 
L 348.33559 335.787892 
L 344.460116 334.126104 
L 340.500645 332.184252 
L 336.485859 329.944595 
L 332.850052 327.671058 
L 329.214818 325.157713 
L 325.199917 322.095121 
L 321.233452 318.764938 
L 317.33523 315.18701 
L 313.521059 311.382378 
L 309.803247 307.37205 
L 305.836044 302.747085 
L 302.005548 297.922353 
L 298.317863 292.920265 
L 294.777411 287.760819 
L 291.087104 281.973654 
L 287.580195 276.040711 
L 284.260926 269.980436 
L 281.134024 263.809826 
L 278.204807 257.544979 
L 275.479139 251.201499 
L 272.963336 244.79483 
L 270.663997 238.340538 
L 268.587751 231.854362 
L 266.741047 225.352246 
L 265.129951 218.850271 
L 263.760032 212.364628 
L 262.636278 205.911622 
L 261.762972 199.507527 
L 261.185469 193.693862 
L 260.821589 187.944259 
L 260.672699 182.269788 
L 260.732567 176.670078 
L 260.985233 171.665695 
L 261.306295 169.260725 
L 261.814724 166.955325 
L 262.504645 164.753011 
L 263.370036 162.657025 
L 264.401416 160.674541 
L 265.585491 158.818726 
L 267.186434 156.773552 
L 268.887265 154.938329 
L 270.936918 153.069616 
L 272.751038 151.702095 
L 274.599194 150.550828 
L 276.796506 149.466352 
L 279.994772 148.170444 
L 284.191137 146.726008 
L 288.733096 145.404126 
L 293.285571 144.316445 
L 297.509422 143.525219 
L 301.719515 142.956326 
L 305.903886 142.617154 
L 310.051393 142.506913 
L 314.151408 142.61402 
L 318.502847 142.947208 
L 323.08178 143.517281 
L 328.154793 144.376108 
L 333.667154 145.536448 
L 339.831419 147.062548 
L 346.806965 149.024405 
L 354.690307 151.478453 
L 363.970177 154.605675 
L 376.9913 159.251969 
L 399.756022 167.392558 
L 409.396912 170.590309 
L 426.466894 175.770942 
L 429.404199 176.574086 
L 429.404199 176.574086 
" clip-path="url(#pcd24f5dd6f)" style="fill: none; stroke: #006d5b; stroke-width: 2; stroke-linecap: square"/>
   </g>
   <g id="Path3DCollection_1">
    <defs>
     <path id="mebea52c9a3" d="M 0 -5.91608 
L -1.328243 -1.828169 
L -5.626526 -1.828169 
L -2.149142 0.698298 
L -3.477384 4.786209 
L -0 2.259741 
L 3.477384 4.786209 
L 2.149142 0.698298 
L 5.626526 -1.828169 
L 1.328243 -1.828169 
z
" style="stroke: #333333"/>
    </defs>
    <g clip-path="url(#pcd24f5dd6f)">
     <use xlink:href="#mebea52c9a3" x="417.735122" y="281.823135" style="fill: #333333; stroke: #333333"/>
    </g>
   </g>
   <g id="text_19">
    <text style="font-size: 18px; font-family: 'Times New Roman', 'SimSun'; text-anchor: middle" x="359.424" y="39.6" transform="rotate(-0 359.424 39.6)">预捕获三维轨迹</text>
   </g>
   <g id="Path3DCollection_2">
    <defs>
     <path id="m30f62d892e" d="M 0 5.477226 
L 5.477226 0 
L 0 -5.477226 
L -5.477226 0 
z
" style="stroke: #004b87"/>
    </defs>
    <g clip-path="url(#pcd24f5dd6f)">
     <use xlink:href="#m30f62d892e" x="302.842893" y="300.376498" style="fill: #004b87; stroke: #004b87"/>
    </g>
   </g>
   <g id="Path3DCollection_3">
    <defs>
     <path id="m7efe95820a" d="M 0 2.95804 
C 0.784481 2.95804 1.536938 2.646362 2.09165 2.09165 
C 2.646362 1.536938 2.95804 0.784481 2.95804 0 
C 2.95804 -0.784481 2.646362 -1.536938 2.09165 -2.09165 
C 1.536938 -2.646362 0.784481 -2.95804 0 -2.95804 
C -0.784481 -2.95804 -1.536938 -2.646362 -2.09165 -2.09165 
C -2.646362 -1.536938 -2.95804 -0.784481 -2.95804 0 
C -2.95804 0.784481 -2.646362 1.536938 -2.09165 2.09165 
C -1.536938 2.646362 -0.784481 2.95804 0 2.95804 
z
" style="stroke: #006d5b"/>
    </defs>
    <g clip-path="url(#pcd24f5dd6f)">
     <use xlink:href="#m7efe95820a" x="429.404199" y="176.574086" style="fill: #006d5b; stroke: #006d5b"/>
    </g>
   </g>
   <g id="legend_1">
    <g id="line2d_22">
     <path d="M 628.7328 88.2672 
L 640.7328 88.2672 
L 652.7328 88.2672 
" style="fill: none; stroke-dasharray: 7.4,3.2; stroke-dashoffset: 0; stroke: #777777; stroke-width: 2"/>
    </g>
    <g id="text_20">
     <text style="font-size: 12px; font-family: 'Times New Roman', 'SimSun'; text-anchor: start" x="662.3328" y="92.4672" transform="rotate(-0 662.3328 92.4672)">Pure MPC</text>
    </g>
    <g id="line2d_23">
     <path d="M 628.7328 105.376575 
L 640.7328 105.376575 
L 652.7328 105.376575 
" style="fill: none; stroke: #004b87; stroke-width: 2; stroke-linecap: square"/>
    </g>
    <g id="text_21">
     <text style="font-size: 12px; font-family: 'Times New Roman', 'SimSun'; text-anchor: start" x="662.3328" y="109.576575" transform="rotate(-0 662.3328 109.576575)">价值协调（262460）</text>
    </g>
    <g id="Path3DCollection_4">
     <g>
      <use xlink:href="#m30f62d892e" x="640.7328" y="123.4422" style="fill: #004b87; stroke: #004b87"/>
     </g>
    </g>
    <g id="text_22">
     <text style="font-size: 12px; font-family: 'Times New Roman', 'SimSun'; text-anchor: start" x="662.3328" y="126.5922" transform="rotate(-0 662.3328 126.5922)">交接点（262460）</text>
    </g>
    <g id="line2d_24">
     <path d="M 628.7328 139.501575 
L 640.7328 139.501575 
L 652.7328 139.501575 
" style="fill: none; stroke: #006d5b; stroke-width: 2; stroke-linecap: square"/>
    </g>
    <g id="text_23">
     <text style="font-size: 12px; font-family: 'Times New Roman', 'SimSun'; text-anchor: start" x="662.3328" y="143.701575" transform="rotate(-0 662.3328 143.701575)">价值协调（262462）</text>
    </g>
    <g id="Path3DCollection_5">
     <defs>
      <path id="mb71fa7814d" d="M 0 5.477226 
L 5.477226 0 
L 0 -5.477226 
L -5.477226 0 
z
" style="stroke: #006d5b"/>
     </defs>
     <g>
      <use xlink:href="#mb71fa7814d" x="640.7328" y="157.5672" style="fill: #006d5b; stroke: #006d5b"/>
     </g>
    </g>
    <g id="text_24">
     <text style="font-size: 12px; font-family: 'Times New Roman', 'SimSun'; text-anchor: start" x="662.3328" y="160.7172" transform="rotate(-0 662.3328 160.7172)">交接点（262462）</text>
    </g>
    <g id="Path3DCollection_6">
     <g>
      <use xlink:href="#mebea52c9a3" x="640.7328" y="174.6297" style="fill: #333333; stroke: #333333"/>
     </g>
    </g>
    <g id="text_25">
     <text style="font-size: 12px; font-family: 'Times New Roman', 'SimSun'; text-anchor: start" x="662.3328" y="177.7797" transform="rotate(-0 662.3328 177.7797)">共同起点</text>
    </g>
    <g id="Path3DCollection_7">
     <defs>
      <path id="me76a89ee47" d="M -3.535534 3.535534 
L 3.535534 3.535534 
L 3.535534 -3.535534 
L -3.535534 -3.535534 
z
" style="stroke: #555555"/>
     </defs>
     <g>
      <use xlink:href="#me76a89ee47" x="640.7328" y="191.6922" style="fill: #555555; stroke: #555555"/>
     </g>
    </g>
    <g id="text_26">
     <text style="font-size: 12px; font-family: 'Times New Roman', 'SimSun'; text-anchor: start" x="662.3328" y="194.8422" transform="rotate(-0 662.3328 194.8422)">目标质心</text>
    </g>
    <g id="Path3DCollection_8">
     <defs>
      <path id="m4f8fc706fd" d="M 0 -3.708099 
L -3.708099 3.708099 
L 3.708099 3.708099 
z
" style="stroke: #ad6b00"/>
     </defs>
     <g>
      <use xlink:href="#m4f8fc706fd" x="640.7328" y="208.7547" style="fill: #ad6b00; stroke: #ad6b00"/>
     </g>
    </g>
    <g id="text_27">
     <text style="font-size: 12px; font-family: 'Times New Roman', 'SimSun'; text-anchor: start" x="662.3328" y="211.9047" transform="rotate(-0 662.3328 211.9047)">捕获端口</text>
    </g>
    <g id="Path3DCollection_9">
     <defs>
      <path id="m25622b00e3" d="M -4.031129 4.031129 
L 4.031129 -4.031129 
M -4.031129 -4.031129 
L 4.031129 4.031129 
" style="stroke: #ad6b00; stroke-width: 1.5"/>
     </defs>
     <g>
      <use xlink:href="#m25622b00e3" x="640.7328" y="225.864075" style="fill: #ad6b00; stroke: #ad6b00; stroke-width: 1.5"/>
     </g>
    </g>
    <g id="text_28">
     <text style="font-size: 12px; font-family: 'Times New Roman', 'SimSun'; text-anchor: start" x="662.3328" y="229.014075" transform="rotate(-0 662.3328 229.014075)">预捕获目标位置</text>
    </g>
   </g>
   <g id="Path3DCollection_10">
    <defs>
     <path id="mbdc2cd675c" d="M 0 2.95804 
C 0.784481 2.95804 1.536938 2.646362 2.09165 2.09165 
C 2.646362 1.536938 2.95804 0.784481 2.95804 0 
C 2.95804 -0.784481 2.646362 -1.536938 2.09165 -2.09165 
C 1.536938 -2.646362 0.784481 -2.95804 0 -2.95804 
C -0.784481 -2.95804 -1.536938 -2.646362 -2.09165 -2.09165 
C -2.646362 -1.536938 -2.95804 -0.784481 -2.95804 0 
C -2.95804 0.784481 -2.646362 1.536938 -2.09165 2.09165 
C -1.536938 2.646362 -0.784481 2.95804 0 2.95804 
z
" style="stroke: #004b87"/>
    </defs>
    <g clip-path="url(#pcd24f5dd6f)">
     <use xlink:href="#mbdc2cd675c" x="429.599509" y="176.250151" style="fill: #004b87; stroke: #004b87"/>
    </g>
   </g>
   <g id="Path3DCollection_11">
    <defs>
     <path id="mcdad0febba" d="M 0 2.95804 
C 0.784481 2.95804 1.536938 2.646362 2.09165 2.09165 
C 2.646362 1.536938 2.95804 0.784481 2.95804 0 
C 2.95804 -0.784481 2.646362 -1.536938 2.09165 -2.09165 
C 1.536938 -2.646362 0.784481 -2.95804 0 -2.95804 
C -0.784481 -2.95804 -1.536938 -2.646362 -2.09165 -2.09165 
C -2.646362 -1.536938 -2.95804 -0.784481 -2.95804 0 
C -2.95804 0.784481 -2.646362 1.536938 -2.09165 2.09165 
C -1.536938 2.646362 -0.784481 2.95804 0 2.95804 
z
" style="stroke: #777777"/>
    </defs>
    <g clip-path="url(#pcd24f5dd6f)">
     <use xlink:href="#mcdad0febba" x="429.342618" y="176.072452" style="fill: #777777; stroke: #777777"/>
    </g>
   </g>
   <g id="Path3DCollection_12">
    <g clip-path="url(#pcd24f5dd6f)">
     <use xlink:href="#m25622b00e3" x="431.082071" y="177.134483" style="fill: #ad6b00; stroke: #ad6b00; stroke-width: 1.5"/>
    </g>
   </g>
   <g id="Path3DCollection_13">
    <g clip-path="url(#pcd24f5dd6f)">
     <use xlink:href="#m4f8fc706fd" x="443.252126" y="180.052622" style="fill: #ad6b00; stroke: #ad6b00"/>
    </g>
   </g>
   <g id="Path3DCollection_14">
    <g clip-path="url(#pcd24f5dd6f)">
     <use xlink:href="#me76a89ee47" x="455.503944" y="182.990365" style="fill: #555555; stroke: #555555"/>
    </g>
   </g>
   <g id="Path3DCollection_15">
    <g clip-path="url(#pcd24f5dd6f)">
     <use xlink:href="#mb71fa7814d" x="260.910557" y="172.654721" style="fill: #006d5b; stroke: #006d5b"/>
    </g>
   </g>
  </g>
  <g id="text_29">
   <text style="font-size: 10px; font-family: 'Times New Roman', 'SimSun'" transform="translate(292.885156 548.71375)">50k中间模型262460 / 262462，w2.36_r15，开发块单个开局266019，非正式。</text>
   <text style="font-size: 10px; font-family: 'Times New Roman', 'SimSun'" transform="translate(283.853906 559.460938)">本例方法完成但比Pure慢：133.9 / 161.1s 对106.8s；不代表总体性能或协调增益。</text>
  </g>
 </g>
 <defs>
  <clipPath id="pcd24f5dd6f">
   <rect x="163.584" y="57.6" width="391.68" height="391.68"/>
  </clipPath>
 </defs>
</svg>
